<svg xmlns="http://www.w3.org/2000/svg">
    <g id="phone">
        <path d="M86.9 74.6c1.8-1.8 1.6-6.2-.4-8.2L71 50.9c-1.8-1.8-5.5-1.5-7.4.4l-3.9 3.9L83 78.5l3.9-3.9z" fill= "#61D0D4"/>
        <path d="M102.7 125.8c-7.1 0-14.6-2.6-20.5-8.4-10-10-9.8-24.9-3.6-34L55.4 60.1c-4 6.2-4.9 15.3-2.5 25.9C56 99.4 64 113 75.3 124.4c11.2 11.2 25.4 19.5 38.8 22.8 10.7 2.6 20 1.8 26.2-2.1L117 121.7c-3.9 2.6-9 4.1-14.3 4.1z"></path>
        <path d="M100.3.1C45.1.1.3 44.9.3 100.1s44.8 100 100 100 100-44.8 100-100S155.5.1 100.3.1zm53.5 141.4l-6.2 6.2c-.2.2-.3.3-.5.4-5.2 4.7-12.6 7.1-21.3 7.1-4.2 0-8.6-.6-13.3-1.7-14.8-3.6-29.7-12.3-41.9-24.5s-20.7-26.9-24.1-41.6c-3.3-14.3-1.1-26.7 6-34.3.1-.1.2-.2.2-.3l6.2-6.2c2.3-2.3 5.5-3.6 8.8-3.6 3.1 0 5.9 1.1 7.9 3.2l15.5 15.5c4.6 4.6 4.8 13.1.4 17.5l-5.9 5.9c-6.2 6.3-7 19.4 1.2 27.6 8.5 8.5 22.2 8.1 28.4 2l5.8-5.8c2.3-2.3 5.5-3.6 8.8-3.6 3.1 0 5.9 1.1 7.9 3.2l15.5 15.5c4.8 4.5 5 13 .6 17.5z"></path>
        <path d="M133.2 113c-1.8-1.8-5.5-1.5-7.4.4l-3.9 3.9 23.3 23.3 3.9-3.9c1.8-1.8 1.6-6.2-.4-8.2L133.2 113z"/>
    </g>
</svg>


    <g>
        <path d="M46 75.2l54.5 25.2 52.5-24V67H46v8.2z" class=""></path>
        <path d="M101.9 108.2c-.1 0-.2.4-.3.4-.3.1-.6.4-1 .4-.3 0-.6-.3-.9-.4-.1 0-.1-.2-.2-.2s-.4-.1-.5-.2L46 83.7V134h107V84.8L102.1 108c-.1.1-.1.2-.2.2z" class=""></path>
        <path d="M99.7.1C44.5.1-.3 44.9-.3 100.1s44.8 100 100 100 100-44.8 100-100S155 .1 99.7.1zM161 138.2c0 2.1-1.7 3.8-3.8 3.8H42.8c-2.1 0-3.8-1.7-3.8-3.8V62.8c0-2.1 1.7-3.8 3.8-3.8h114.3c2.1 0 3.8 1.7 3.8 3.8v75.4z" class=""></path>
    </g>
</svg>