<?xml version="1.0" encoding="utf-8"?>
<!-- Svg Vector Icons : http://www.onlinewebfonts.com/icon -->
<!DOCTYPE svg PUBLIC "-//W3C//DTD SVG 1.1//EN" "http://www.w3.org/Graphics/SVG/1.1/DTD/svg11.dtd">
<svg version="1.1" xmlns="http://www.w3.org/2000/svg" xmlns:xlink="http://www.w3.org/1999/xlink" x="0px" y="0px" viewBox="0 0 1000 1000" enable-background="new 0 0 1000 1000" xml:space="preserve">
<metadata> Svg Vector Icons : http://www.onlinewebfonts.com/icon </metadata>
<g><g transform="translate(0.000000,512.000000) scale(0.100000,-0.100000)"><path d="M4530.1,5007.9C3375.4,4889,2341.7,4400,1530.4,3588.6C751.6,2809.9,287.5,1860.5,124.4,723.1c-32.6-226.3-32.6-982,0-1208.3c163-1137.4,629.1-2086.8,1405.9-2865.5c776.8-776.8,1730-1244.8,2865.5-1405.9c226.3-32.6,982-32.6,1208.3,0c939.8,134.3,1779.9,491,2474.2,1053c987.8,797.9,1611.1,1916.1,1797.2,3218.4c32.6,226.3,32.6,982,0,1208.3c-161.1,1135.5-629.1,2088.7-1405.9,2865.5c-759.5,759.5-1687.8,1223.7-2779.2,1392.5C5448.8,5017.5,4775.6,5034.8,4530.1,5007.9z M5537,4586c801.7-92.1,1611.1-431.5,2267.1-949.4c180.3-141.9,571.6-533.2,713.5-713.5C9025.9,2276.7,9348.1,1521,9461.2,704c42.2-308.8,42.2-865,0-1170C9179.3-2497.2,7616.2-4060.3,5585-4342.3c-305-42.2-861.2-42.2-1170,0c-817.1,113.2-1572.8,435.4-2219.1,943.7c-180.3,141.9-571.6,533.2-713.5,713.5C960.7-2023.4,632.7-1239,529.2-402.7c-11.5,101.7-23,337.6-23,521.7c0,533.2,67.1,943.7,235.9,1440.4c157.3,466.1,374,876.5,671.3,1273.5c184.1,245.5,627.2,688.6,872.7,872.7c732.7,548.5,1549.7,847.8,2483.8,909.1C4919.4,4624.4,5343.3,4609,5537,4586z"/><path d="M4597.2,2765.8c-1148.9-140-2044.6-953.2-2303.5-2088.7c-49.9-212.9-69.1-663.6-38.4-888c136.2-1024.2,832.4-1866.2,1810.6-2192.3c287.7-95.9,514-130.4,838.2-130.4c669.4,0,1273.6,230.2,1781.8,677.1c211,186.1,247.4,260.8,182.2,385.5c-34.5,69.1-143.8,120.8-214.8,103.6c-26.9-5.8-105.5-63.3-174.6-128.5c-345.2-318.4-744.2-517.9-1200.7-602.3c-257-46-682.8-28.8-939.8,38.4c-836.2,222.5-1469.2,890-1651.4,1737.7c-42.2,195.6-47.9,654-9.6,843.9c170.7,865,805.6,1551.7,1643.7,1778c174.5,47.9,220.6,51.8,554.3,51.8c314.6,0,385.5-5.7,514-42.2c230.2-63.3,452.7-159.2,638.7-274.3c184.1-113.2,481.4-391.3,623.3-583.1c47.9-63.3,111.3-126.6,140-141.9c118.9-55.6,280,53.7,280,191.8c0,82.5-145.8,280-374,508.3c-491,491-1041.5,732.7-1737.7,763.4C4838.9,2779.2,4675.9,2775.4,4597.2,2765.8z"/></g></g>
</svg>