<?xml version="1.0" encoding="utf-8"?>
<!-- Svg Vector Icons : http://www.onlinewebfonts.com/icon -->
<!DOCTYPE svg PUBLIC "-//W3C//DTD SVG 1.1//EN" "http://www.w3.org/Graphics/SVG/1.1/DTD/svg11.dtd">
<svg version="1.1" xmlns="http://www.w3.org/2000/svg" xmlns:xlink="http://www.w3.org/1999/xlink" x="0px" y="0px" viewBox="0 0 1000 1000" enable-background="new 0 0 1000 1000" xml:space="preserve">
<metadata> Svg Vector Icons : http://www.onlinewebfonts.com/icon </metadata>
<g><path d="M947.5,750c-25.9-20.8-119.4-71.1-200.1-107.7c-12.1-5.5-24.2-8.3-35.8-8.3c-34.2,0-57.6,22.8-68.2,44.4c-17.1,34.9-32.6,46.5-40.3,50.4c-4.3,2.1-10.2,3.2-17.1,3.2c0,0,0,0,0,0c-11.7,0-22.8-3.1-25.9-4c-4.2-2-9.4-4.2-15.4-6.7c-39.3-16.7-112.5-47.8-182.4-129.7c-72.6-85.1-84.4-113.4-86.3-119.9c0.7-4.3,0-8.8-2.1-12.8c-0.2-0.3-15.2-29-1.3-48.4c10.9-15.1,26.6-30.3,45.5-43.9c66.7-48,56-102.5,34.5-154.3c-14.3-34.4-41.7-83.8-63.8-123.5c-8.9-16-16.9-26.1-22.6-37c-19.1-36.3-55.5-32.1-73-32.1h-25.9c-2,0-4-4-5.9-3.4c-4,1.2-40,11.6-88.9,74.2c-97.3,124.5-81,288.3,48.4,489c87.7,136.1,332.7,357.7,516.7,395.7c27.2,5.6,54.3,8.2,80.2,8.2c179,0,263.3-131.2,267.7-138.5C986.5,843.2,1007.8,798.3,947.5,750z M950,826.7c-9.2,13.7-83.1,116.7-232.1,116.7c-23.3,0-47.5-2.6-72.2-7.7C474.3,900.3,236.5,684.3,154.5,557C33.6,369.5,17.1,228.6,104,117.3c34.4-44.1,60.1-57.6,67.2-57.6h22c20.6,0,30.9-2.1,37.6,10.7c5.8,11.1,14,23.6,23.1,39.9c21.6,38.8,48.4,86,61.8,118.3c20.2,48.7,22,75.2-21,106.1c-15.6,11.2-37.8,29.3-54.7,52.8c-22.7,31.6-11,68.5-4.6,83.7c0.7,19.4,20.6,57.7,96.3,146.4c76,89,157.8,123.7,197.2,140.4c6,2.6,11.1,4.7,15.1,6.6c0.7,0.3,1.4,0.6,2.2,0.9c1.9,0.7,19.4,6.4,39.6,6.4c0,0,0,0,0,0c13.3,0,25.1-2.5,35-7.4c21.7-10.8,41.4-33.9,58.4-68.7c1.1-2.2,11.3-21.9,32.3-21.9c6,0,12.5,1.6,19.4,4.7c82.7,37.5,170.9,85.9,191.6,102.5C953.6,806,950.6,823.9,950,826.7z"/></g>
</svg>